<svg xmlns="http://www.w3.org/2000/svg" viewBox="0 0 54.12 56.03"><defs><style>.cls-1{fill:#303840;}</style></defs><g id="Layer_2" data-name="Layer 2"><g id="Layer_1-2" data-name="Layer 1"><path class="cls-1" d="M29.38,41H22.61c.26,2.08-1.1,7.2-1.1,7.2l4.18,6.76V49.38a1.26,1.26,0,1,1,1.67-1.19,1.3,1.3,0,0,1-.79,1.19v5.54l3.9-6.76S29.11,43,29.38,41Z"/><path class="cls-1" d="M26.13,14.07c-5.82,0-10.49,4.27-10.49,9.59a9.48,9.48,0,0,0,5.49,8.41l1,7.42h7.92l1-7.42a9.44,9.44,0,0,0,5.49-8.39C36.56,18.38,31.89,14.08,26.13,14.07Zm0,16.79a8.24,8.24,0,0,1-5.4-2,6.89,6.89,0,0,1-2.48-5.22c0-4,3.49-7.25,7.87-7.26S34,19.64,34,23.61a6.91,6.91,0,0,1-2.48,5.27A8.22,8.22,0,0,1,26.1,30.86Z"/><path class="cls-1" d="M46.47,21.62l1.66-3.44-6.41-1.29.09-.19-.08.06v.13l-1.64-.34c-.77,1.38-1.38,2.86-2.07,4.29-.06.12-.13.24-.25.45A12.88,12.88,0,0,0,22.55,14c.09-.23.14-.35.2-.48.68-1.43,1.46-2.83,2.06-4.29L23.52,8.13,23.61,8v-.1l-.1.19C20.28,5.41,17.12,2.75,13.83,0h.43L37.68,1.29a.84.84,0,0,1,.3.08.8.8,0,0,1,.25.18q7.83,8.75,15.62,17.51c.06.06.11.14.27.33l-4.32-.87L48,22.34a1.32,1.32,0,0,1,0,1.21l-2.18,4.53a1.37,1.37,0,0,1-1.83.61,1.35,1.35,0,0,1-.66-1.81l2.18-4.53A1.32,1.32,0,0,1,46.47,21.62Z"/><path class="cls-1" d="M23.62,20a1.93,1.93,0,1,0,1.94,1.93A1.94,1.94,0,0,0,23.62,20Z"/><circle class="cls-1" cx="29.46" cy="26.52" r="1.39"/><path class="cls-1" d="M24.44,26.3a.7.7,0,1,0,.7.7A.7.7,0,0,0,24.44,26.3Z"/><circle class="cls-1" cx="21.69" cy="25.43" r="0.45"/><path class="cls-1" d="M25.77,28.86a.33.33,0,1,0,.33.33A.33.33,0,0,0,25.77,28.86Z"/><circle class="cls-1" cx="27.28" cy="28.7" r="0.33"/><path class="cls-1" d="M27.51,23.55a.32.32,0,0,0-.32-.33.33.33,0,0,0-.34.32.34.34,0,0,0,.33.34A.33.33,0,0,0,27.51,23.55Z"/><path class="cls-1" d="M29,23.74a.38.38,0,0,0,.76,0,.38.38,0,1,0-.76,0Z"/><path class="cls-1" d="M28.69,21.77a.48.48,0,0,0,.49-.47.49.49,0,0,0-1,0A.48.48,0,0,0,28.69,21.77Z"/><path class="cls-1" d="M27.24,19.14a.29.29,0,0,0,.3-.29.29.29,0,0,0-.29-.3.28.28,0,0,0-.3.29A.29.29,0,0,0,27.24,19.14Z"/><path class="cls-1" d="M24.87,18.68a.31.31,0,0,0,.31-.3.3.3,0,0,0-.6,0A.31.31,0,0,0,24.87,18.68Z"/><polyline class="cls-1" points="26 56.03 0 56.03 25.18 49.95"/><polyline class="cls-1" points="26.31 56.03 52.31 56.03 27.07 50.05"/></g></g></svg>